<?xml version="1.0" encoding="UTF-8" standalone="no"?>
<!DOCTYPE svg PUBLIC "-//W3C//DTD SVG 1.1//EN" "http://www.w3.org/Graphics/SVG/1.1/DTD/svg11.dtd">
<svg width="100%" height="100%" viewBox="0 0 178 196" version="1.1" xmlns="http://www.w3.org/2000/svg" xmlns:xlink="http://www.w3.org/1999/xlink" xml:space="preserve" xmlns:serif="http://www.serif.com/" style="fill-rule:evenodd;clip-rule:evenodd;stroke-linejoin:round;stroke-miterlimit:2;">
    <g id="Middle-only" serif:id="Middle only">
        <path d="M90.923,38.267C90.502,18.766 88.314,11.43 77.861,11.43L77.861,10L116.471,10L116.471,11.43C106.039,11.43 103.839,18.736 103.411,38.149C103.335,41.621 103.315,45.48 103.315,49.754L103.315,86.387C102.763,86.195 102.21,86.006 101.656,85.817C98.046,84.589 94.43,83.423 91.017,82.178L91.017,49.754C91.017,49.736 91.017,49.717 91.017,49.699C91.017,45.495 90.997,41.694 90.923,38.267ZM102.416,152.449C99.175,169.115 87.459,183.03 71.855,183.03C69.567,183.03 68.566,182.744 66.85,182.458L67.136,181.028C67.136,181.028 68.566,181.171 69.424,181.171C81.313,181.171 88.571,169.643 90.498,152.875C90.843,149.878 91.017,146.714 91.017,143.419L91.017,102.128C91.312,102.234 91.608,102.339 91.904,102.444C95.785,103.828 99.672,105.176 103.315,106.656L103.315,143.133C103.315,146.285 103.006,149.412 102.416,152.449Z" style="fill:white;fill-rule:nonzero;"/>
        <path d="M61.06,69.24C61.06,55.201 73.887,42.98 97.218,42.98C109.641,42.98 118.226,45 126.003,47.626L126.003,61.16L124.993,61.16C124.993,61.16 118.832,44.192 97.218,44.192C85.335,44.192 76.846,48.759 72.212,54.952C69.521,58.55 68.13,62.697 68.13,66.816C68.13,94.49 131.962,84.693 131.962,120.043C131.962,134.082 117.418,148.02 94.087,148.02C80.755,148.02 68.938,141.253 61.464,135.698L61.464,122.164L62.474,122.164C62.474,122.164 75.705,146.202 99.743,146.202C114.489,146.202 126.104,135.395 126.104,124.184C126.104,93.783 61.06,102.368 61.06,69.24Z" style="fill:white;fill-rule:nonzero;"/>
    </g>
</svg>
